<?xml version="1.0" encoding="utf-8"?>
<!-- Generator: Adobe Illustrator 18.0.0, SVG Export Plug-In . SVG Version: 6.00 Build 0)  -->
<!DOCTYPE svg PUBLIC "-//W3C//DTD SVG 1.1//EN" "http://www.w3.org/Graphics/SVG/1.1/DTD/svg11.dtd">
<svg version="1.1" id="logo" xmlns="http://www.w3.org/2000/svg" xmlns:xlink="http://www.w3.org/1999/xlink" x="0px" y="0px"
	 width="280px" height="328px" viewBox="0 0 280 328" style="enable-background:new 0 0 280 328;" xml:space="preserve">
<style type="text/css">
	.st0{fill:#FFFFFF;}
	.st1{fill:none;stroke:#FFFFFF;stroke-width:3;stroke-linecap:round;stroke-linejoin:round;stroke-miterlimit:10;}
	.st2{fill:none;}
	.st3{fill:none;stroke:#FFFFFF;stroke-width:2.5;stroke-linecap:round;stroke-linejoin:round;stroke-miterlimit:10;}
	.st4{fill:none;stroke:#FFFFFF;stroke-width:2;stroke-linecap:round;stroke-linejoin:round;stroke-miterlimit:10;}
</style>
<g>
	<path class="st0" d="M103.1,158.7v1.6h-5.4v2.7h4.8v1.5h-4.8v2.7h5.5v1.6H96v-10.1H103.1z"/>
	<path class="st0" d="M111.3,160.1c-0.5,0-0.9,0.1-1.2,0.3c-0.3,0.2-0.5,0.5-0.5,0.9s0.2,0.7,0.5,0.9c0.3,0.2,1,0.4,2,0.7
		c1,0.2,1.8,0.6,2.3,1.1c0.5,0.5,0.8,1.1,0.8,2c0,0.9-0.3,1.6-1,2.1c-0.7,0.5-1.5,0.8-2.6,0.8c-1.6,0-3-0.5-4.2-1.6l1.1-1.3
		c1,0.9,2.1,1.3,3.2,1.3c0.5,0,1-0.1,1.3-0.4c0.3-0.2,0.5-0.5,0.5-0.9c0-0.4-0.2-0.7-0.5-0.9s-0.8-0.4-1.6-0.6s-1.3-0.3-1.7-0.5
		c-0.4-0.1-0.7-0.3-1-0.6c-0.6-0.5-0.9-1.1-0.9-2.1c0-0.9,0.3-1.6,1-2.2c0.7-0.5,1.5-0.8,2.5-0.8c0.6,0,1.3,0.1,1.9,0.3
		c0.6,0.2,1.2,0.5,1.6,0.9l-0.9,1.3c-0.3-0.3-0.7-0.5-1.2-0.7C112.3,160.2,111.8,160.1,111.3,160.1z"/>
	<path class="st0" d="M124.1,160.3v8.5h-1.7v-8.5h-3.1v-1.6h7.8v1.6H124.1z"/>
	<path class="st0" d="M130.9,168.6c-0.2-0.2-0.3-0.5-0.3-0.8c0-0.3,0.1-0.5,0.3-0.8c0.2-0.2,0.5-0.3,0.8-0.3s0.6,0.1,0.8,0.3
		c0.2,0.2,0.3,0.5,0.3,0.8c0,0.3-0.1,0.6-0.3,0.8c-0.2,0.2-0.5,0.3-0.8,0.3S131.1,168.8,130.9,168.6z"/>
	<path class="st0" d="M148.7,162.7c0.3-0.4,0.4-0.8,0.4-1.2c0-0.4-0.2-0.7-0.5-1c-0.3-0.3-0.7-0.4-1.2-0.4c-0.8,0-1.5,0.4-2.1,1.3
		l-1.4-0.8c0.4-0.7,0.9-1.2,1.5-1.5c0.5-0.3,1.2-0.5,2.1-0.5c0.8,0,1.6,0.3,2.2,0.8c0.6,0.5,1,1.3,1,2.2c0,0.5-0.1,1-0.4,1.5
		c-0.3,0.5-0.8,1.1-1.5,1.8l-2.4,2.4h4.6v1.6h-6.9v-1.4l3.1-3.1C147.9,163.6,148.4,163.1,148.7,162.7z"/>
	<path class="st0" d="M156.6,167.5c-0.7-0.9-1-2.2-1-3.8c0-1.6,0.3-2.8,1-3.8c0.7-0.9,1.7-1.4,3.1-1.4s2.4,0.5,3.1,1.4
		c0.7,0.9,1,2.2,1,3.8c0,1.6-0.3,2.8-1,3.8c-0.7,0.9-1.7,1.4-3.1,1.4S157.3,168.5,156.6,167.5z M157.8,161c-0.4,0.7-0.6,1.6-0.6,2.7
		c0,1.1,0.2,2,0.6,2.7c0.4,0.7,1,1,1.9,1s1.5-0.3,1.9-1c0.4-0.7,0.6-1.6,0.6-2.7c0-1.1-0.2-2-0.6-2.7c-0.4-0.7-1-1-1.9-1
		S158.2,160.3,157.8,161z"/>
	<path class="st0" d="M167.9,158.7h3.7v10.1H170v-8.6h-2V158.7z"/>
	<path class="st0" d="M182.9,158.7v1.5h-4.2v2.5c0.4-0.2,0.9-0.3,1.4-0.3c0.9,0,1.8,0.3,2.4,0.8c0.7,0.6,1,1.3,1,2.3
		c0,1-0.4,1.8-1.1,2.4c-0.7,0.6-1.6,1-2.6,1c-1.4,0-2.4-0.5-3.2-1.4l0.9-1.2c0.1,0.1,0.2,0.2,0.3,0.3c0.1,0.1,0.4,0.2,0.8,0.4
		c0.4,0.2,0.8,0.3,1.3,0.3c0.5,0,0.9-0.1,1.3-0.4c0.4-0.3,0.6-0.7,0.6-1.3c0-0.6-0.2-1-0.6-1.3c-0.4-0.3-0.9-0.5-1.6-0.5
		s-1.2,0.2-1.8,0.5l-0.7-0.8v-4.8H182.9z"/>
</g>
<path class="st0" d="M162,147.2c-1.8,0-2.7-0.8-3.4-1.3c-0.5-0.4-0.8-0.7-1.5-0.7s-1,0.2-1.5,0.7c-0.7,0.6-1.6,1.3-3.4,1.3
	c-1.8,0-2.7-0.8-3.4-1.3c-0.5-0.4-0.8-0.7-1.5-0.7c-0.7,0-1,0.2-1.5,0.7c-0.7,0.6-1.6,1.3-3.4,1.3c-1.8,0-2.7-0.8-3.4-1.3
	c-0.5-0.4-0.8-0.7-1.5-0.7c-0.7,0-1,0.2-1.5,0.7c-0.7,0.6-1.6,1.3-3.4,1.3s-2.7-0.8-3.4-1.3c-0.5-0.4-0.8-0.7-1.5-0.7
	s-1,0.2-1.5,0.7c-0.7,0.6-1.6,1.3-3.4,1.3c-1.8,0-2.7-0.8-3.4-1.3c-0.5-0.4-0.8-0.7-1.5-0.7c-0.8,0-1.5-0.7-1.5-1.5s0.7-1.5,1.5-1.5
	c1.8,0,2.7,0.8,3.4,1.3c0.5,0.4,0.8,0.7,1.5,0.7s1-0.2,1.5-0.7c0.7-0.6,1.6-1.3,3.4-1.3c1.8,0,2.7,0.8,3.4,1.3
	c0.5,0.4,0.8,0.7,1.5,0.7s1-0.2,1.5-0.7c0.7-0.6,1.6-1.3,3.4-1.3c1.8,0,2.7,0.8,3.4,1.3c0.5,0.4,0.8,0.7,1.5,0.7s1-0.2,1.5-0.7
	c0.7-0.6,1.6-1.3,3.4-1.3c1.8,0,2.7,0.8,3.4,1.3c0.5,0.4,0.8,0.7,1.5,0.7c0.7,0,1-0.2,1.5-0.7c0.7-0.6,1.6-1.3,3.4-1.3
	s2.7,0.8,3.4,1.3c0.5,0.4,0.8,0.7,1.5,0.7c0.8,0,1.5,0.7,1.5,1.5S162.8,147.2,162,147.2z"/>
<g>
	<path class="st0" d="M153.5,51.5c-0.8,0-1.5-0.7-1.5-1.5v-9c0-0.8,0.7-1.5,1.5-1.5s1.5,0.7,1.5,1.5v9
		C155,50.8,154.3,51.5,153.5,51.5z"/>
	<path class="st0" d="M163,52h-9c-0.8,0-1.5-0.7-1.5-1.5s0.7-1.5,1.5-1.5h9c0.8,0,1.5,0.7,1.5,1.5S163.8,52,163,52z"/>
	<path class="st0" d="M152.1,61.6C152.1,61.6,152.1,61.6,152.1,61.6c-4.5,0-7.9-1-8-1c-0.2-0.1-0.5-0.2-0.6-0.4l-0.3-0.3
		c-0.2-0.2-0.3-0.4-0.4-0.6c-0.2-0.5-3.7-13.2,3.6-23c5.2-7,14.6-10.5,27.8-10.5c0.5,0,1.1,0,1.6,0c0.4,0,0.8,0.2,1,0.4l0.3,0.3
		c0.3,0.3,0.4,0.6,0.4,1c0.3,12.4-2.5,21.6-8.1,27.3C164,60.4,157,61.6,152.1,61.6z M145.5,57.8c1.1,0.2,3.6,0.7,6.6,0.7
		c4.4,0,10.5-1,15.2-5.8c4.9-5,7.3-13,7.2-24c-0.1,0-0.3,0-0.4,0c-12.2,0-20.8,3.1-25.4,9.3C143.1,45.5,144.9,55.4,145.5,57.8z"/>
	<path class="st0" d="M141.2,63.8c-0.4,0-0.8-0.1-1.1-0.4c-0.6-0.6-0.6-1.5,0-2.1l22.5-22.5c0.6-0.6,1.5-0.6,2.1,0
		c0.6,0.6,0.6,1.5,0,2.1l-22.5,22.5C142,63.7,141.6,63.8,141.2,63.8z"/>
	<path class="st0" d="M123.5,58.5c-6.9,0-16.7-1.6-24.3-9.3c-7.9-8-11.7-21-11.3-38.5c0-0.4,0.2-0.8,0.4-1l0.4-0.4
		c0.3-0.3,0.6-0.4,1-0.4c0.8,0,1.5,0,2.3,0c18.6,0,31.8,5,39.1,14.7c10.2,13.6,5.2,31.4,5,32.2c-0.1,0.2-0.2,0.5-0.4,0.6l-0.4,0.4
		c-0.2,0.2-0.4,0.3-0.6,0.4C134.5,57.1,129.8,58.5,123.5,58.5z M90.8,11.8c-0.2,16.1,3.3,28,10.5,35.3c6.8,7,15.8,8.4,22.1,8.4
		c4.8,0,8.7-0.8,9.9-1.2c0.7-2.8,3.8-17.8-4.6-29.1c-6.7-9-19.1-13.5-36.7-13.5C91.6,11.8,91.2,11.8,90.8,11.8z"/>
	<path class="st0" d="M141.2,63.7c-0.4,0-0.8-0.1-1.1-0.4l-33-33c-0.6-0.6-0.6-1.5,0-2.1c0.6-0.6,1.5-0.6,2.1,0l33,33
		c0.6,0.6,0.6,1.5,0,2.1C142,63.6,141.6,63.7,141.2,63.7z"/>
	<path class="st0" d="M122.5,45.5c-0.8,0-1.5-0.7-1.5-1.5V30c0-0.8,0.7-1.5,1.5-1.5s1.5,0.7,1.5,1.5v14
		C124,44.8,123.3,45.5,122.5,45.5z"/>
	<path class="st0" d="M123,46h-14c-0.8,0-1.5-0.7-1.5-1.5s0.7-1.5,1.5-1.5h14c0.8,0,1.5,0.7,1.5,1.5S123.8,46,123,46z"/>
</g>
<g>
	<path class="st0" d="M44.5,81.2c3.7,3.1,5.6,7.9,5.6,14.4c0,6.5-1.9,11.2-5.7,14.2c-3.8,3-9.6,4.5-17.5,4.5h-9.5V130h-9V76.6h18.3
		C34.9,76.6,40.8,78.1,44.5,81.2z M38.2,103.3c1.8-1.9,2.7-4.7,2.7-8.4c0-3.7-1.1-6.3-3.4-7.8c-2.3-1.5-5.9-2.3-10.8-2.3h-9.2v21.4
		h10.5C32.9,106.1,36.3,105.2,38.2,103.3z"/>
	<path class="st0" d="M102.1,76.6v8.5H73.6v14.1h25.6v8H73.6v14.3H103v8.5H64.6V76.6H102.1z"/>
	<path class="st0" d="M134.5,83.6c-2.6,0-4.8,0.5-6.5,1.6c-1.7,1.1-2.5,2.7-2.5,4.9c0,2.2,0.8,3.8,2.5,5c1.7,1.1,5.3,2.4,10.7,3.7
		c5.5,1.3,9.6,3.2,12.4,5.6c2.8,2.4,4.2,5.9,4.2,10.6s-1.8,8.4-5.3,11.3c-3.5,2.9-8.1,4.4-13.8,4.4c-8.4,0-15.8-2.9-22.2-8.6
		l5.7-6.8c5.4,4.7,11,7,16.8,7c2.9,0,5.2-0.6,6.9-1.9c1.7-1.2,2.6-2.9,2.6-5c0-2.1-0.8-3.7-2.4-4.8c-1.6-1.1-4.4-2.2-8.3-3.1
		c-3.9-0.9-6.9-1.8-8.9-2.6c-2-0.8-3.8-1.8-5.4-3.1c-3.2-2.4-4.7-6.1-4.7-11c0-4.9,1.8-8.8,5.4-11.4c3.6-2.7,8-4,13.3-4
		c3.4,0,6.8,0.6,10.2,1.7c3.4,1.1,6.3,2.7,8.7,4.7l-4.8,6.8c-1.6-1.4-3.7-2.6-6.4-3.5C139.8,84.1,137.2,83.6,134.5,83.6z"/>
	<path class="st0" d="M190.5,84.8V130h-9V84.8h-16.2v-8.3h41.4v8.3H190.5z"/>
	<path class="st0" d="M263.6,122.6c-5.4,5.3-12.1,7.9-20,7.9s-14.6-2.6-20-7.9c-5.4-5.3-8.1-11.8-8.1-19.7s2.7-14.4,8.1-19.7
		c5.4-5.3,12.1-7.9,20-7.9s14.6,2.6,20,7.9c5.4,5.3,8.1,11.8,8.1,19.7S269,117.3,263.6,122.6z M257,89.2c-3.6-3.8-8.1-5.7-13.4-5.7
		c-5.3,0-9.8,1.9-13.4,5.7c-3.6,3.8-5.5,8.3-5.5,13.7c0,5.4,1.8,9.9,5.5,13.7c3.6,3.8,8.1,5.7,13.4,5.7c5.3,0,9.8-1.9,13.4-5.7
		c3.6-3.8,5.5-8.3,5.5-13.7C262.4,97.5,260.6,93,257,89.2z"/>
</g>
<rect x="0.7" class="st2" width="278.7" height="176"/>
<g>
	<path class="st0" d="M154.6,222.8c-0.7,0-1.2-0.6-1.2-1.2v-5.7c0-0.7,0.6-1.2,1.2-1.2s1.2,0.6,1.2,1.2v5.7
		C155.8,222.3,155.3,222.8,154.6,222.8z"/>
	<path class="st0" d="M160.8,223.3h-5.7c-0.7,0-1.2-0.6-1.2-1.2s0.6-1.2,1.2-1.2h5.7c0.7,0,1.2,0.6,1.2,1.2S161.5,223.3,160.8,223.3
		z"/>
	<path class="st0" d="M170.7,206.3c-0.1,8-2,14-5.6,17.6c-2.9,2.9-6.8,4.4-11.6,4.4c-1.8,0-3.4-0.2-4.4-0.4
		c-0.5-2.7-1.2-9.4,2.6-14.5C155.2,208.9,161.6,206.5,170.7,206.3 M171.7,203.8c-32.2,0-24.7,26-24.7,26l0.3,0.3
		c0,0,2.7,0.8,6.3,0.8c7.8,0,20.2-3.6,19.7-26.7l-0.3-0.3C172.5,203.8,172.1,203.8,171.7,203.8L171.7,203.8z"/>
	<path class="st0" d="M142.4,235.6c-0.3,0-0.6-0.1-0.9-0.4c-0.5-0.5-0.5-1.3,0-1.8L162,213c0.5-0.5,1.3-0.5,1.8,0
		c0.5,0.5,0.5,1.3,0,1.8l-20.5,20.5C143,235.5,142.7,235.6,142.4,235.6z"/>
	<path class="st0" d="M102.2,194.4c14,0,23.7,3.6,29,10.6c6.1,8.1,4.5,18.8,3.8,22.2c-1.4,0.3-4,0.7-7.1,0.7c-5,0-12-1.1-17.3-6.6
		C105,215.7,102.2,206.7,102.2,194.4 M101.9,191.9c-0.6,0-1.2,0-1.9,0l-0.4,0.4c-0.7,32.9,16.9,38.1,28.1,38.1
		c5.1,0,8.9-1.1,8.9-1.1l0.4-0.4C137.1,228.9,147.9,191.9,101.9,191.9L101.9,191.9z"/>
	<path class="st0" d="M142.3,235.7c-0.3,0-0.6-0.1-0.9-0.4l-27.2-27.2c-0.5-0.5-0.5-1.3,0-1.8c0.5-0.5,1.3-0.5,1.8,0l27.2,27.2
		c0.5,0.5,0.5,1.3,0,1.8C142.9,235.5,142.6,235.7,142.3,235.7z"/>
	<path class="st0" d="M127.8,221.9c-0.7,0-1.2-0.6-1.2-1.2v-11.5c0-0.7,0.6-1.2,1.2-1.2s1.2,0.6,1.2,1.2v11.5
		C129,221.3,128.5,221.9,127.8,221.9z"/>
	<path class="st0" d="M128.3,222.4h-11.5c-0.7,0-1.2-0.6-1.2-1.2s0.6-1.2,1.2-1.2h11.5c0.7,0,1.2,0.6,1.2,1.2S129,222.4,128.3,222.4
		z"/>
</g>
<g>
	<path class="st0" d="M117.7,245.5c0.9,0.7,1.3,1.9,1.3,3.4s-0.4,2.6-1.3,3.3c-0.9,0.7-2.3,1.1-4.1,1.1h-2.2v3.7h-2.1v-12.6h4.3
		C115.5,244.4,116.9,244.7,117.7,245.5z M116.2,250.6c0.4-0.4,0.6-1.1,0.6-2c0-0.9-0.3-1.5-0.8-1.8c-0.5-0.4-1.4-0.5-2.5-0.5h-2.2v5
		h2.5C115,251.3,115.8,251.1,116.2,250.6z"/>
	<path class="st0" d="M131.3,244.4v2h-6.7v3.3h6v1.9h-6v3.4h6.9v2h-9v-12.6H131.3z"/>
	<path class="st0" d="M138.9,246c-0.6,0-1.1,0.1-1.5,0.4c-0.4,0.3-0.6,0.6-0.6,1.1c0,0.5,0.2,0.9,0.6,1.2c0.4,0.3,1.2,0.6,2.5,0.9
		c1.3,0.3,2.3,0.7,2.9,1.3c0.7,0.6,1,1.4,1,2.5s-0.4,2-1.2,2.7c-0.8,0.7-1.9,1-3.3,1c-2,0-3.7-0.7-5.2-2l1.3-1.6
		c1.3,1.1,2.6,1.7,4,1.7c0.7,0,1.2-0.1,1.6-0.4c0.4-0.3,0.6-0.7,0.6-1.2s-0.2-0.9-0.6-1.1c-0.4-0.3-1-0.5-2-0.7
		c-0.9-0.2-1.6-0.4-2.1-0.6c-0.5-0.2-0.9-0.4-1.3-0.7c-0.7-0.6-1.1-1.4-1.1-2.6c0-1.2,0.4-2.1,1.3-2.7c0.8-0.6,1.9-0.9,3.1-0.9
		c0.8,0,1.6,0.1,2.4,0.4c0.8,0.3,1.5,0.6,2.1,1.1l-1.1,1.6c-0.4-0.3-0.9-0.6-1.5-0.8C140.2,246.1,139.5,246,138.9,246z"/>
	<path class="st0" d="M152.1,246.3v10.6H150v-10.6h-3.8v-1.9h9.7v1.9H152.1z"/>
	<path class="st0" d="M169.3,255.2c-1.3,1.2-2.8,1.9-4.7,1.9s-3.4-0.6-4.7-1.9c-1.3-1.2-1.9-2.8-1.9-4.6c0-1.9,0.6-3.4,1.9-4.6
		c1.3-1.2,2.8-1.9,4.7-1.9s3.4,0.6,4.7,1.9c1.3,1.2,1.9,2.8,1.9,4.6C171.2,252.4,170.6,254,169.3,255.2z M167.7,247.3
		c-0.9-0.9-1.9-1.3-3.2-1.3c-1.2,0-2.3,0.4-3.2,1.3c-0.9,0.9-1.3,2-1.3,3.2c0,1.3,0.4,2.3,1.3,3.2c0.9,0.9,1.9,1.3,3.2,1.3
		c1.2,0,2.3-0.4,3.2-1.3c0.9-0.9,1.3-2,1.3-3.2C169,249.3,168.6,248.2,167.7,247.3z"/>
</g>
<rect x="92.3" y="184" class="st2" width="95.3" height="88"/>
<g>
	<g>
		<path class="st0" d="M154,311c-0.6,0-1-0.4-1-1v-4c0-0.6,0.4-1,1-1s1,0.4,1,1v4C155,310.6,154.6,311,154,311z"/>
		<path class="st0" d="M159,311h-5c-0.6,0-1-0.4-1-1s0.4-1,1-1h5c0.6,0,1,0.4,1,1S159.6,311,159,311z"/>
		<path class="st0" d="M153,318.4L153,318.4c-2.8,0-4.9-0.6-5-0.6c-0.2,0-0.3-0.1-0.4-0.3l-0.2-0.2c-0.1-0.1-0.2-0.3-0.3-0.4
			c-0.1-0.3-2.3-8.3,2.2-14.4c3.4-4.5,9.6-6.8,18.4-6.6c0.3,0,0.5,0.1,0.7,0.3l0.2,0.2c0.2,0.2,0.3,0.4,0.3,0.7
			c0.2,7.8-1.5,13.5-5.1,17.1C160.5,317.7,156.1,318.4,153,318.4z M148.9,315.9c0.7,0.2,2.2,0.4,4.1,0.4c2.7,0,6.5-0.6,9.5-3.6
			c3-3.1,4.5-8.1,4.5-14.9c-7.7,0-13.1,1.9-16,5.8C147.5,308.3,148.6,314.4,148.9,315.9z"/>
		<path class="st0" d="M144.5,320.9c-0.3,0-0.5-0.1-0.7-0.3c-0.4-0.4-0.4-1,0-1.4l15.6-15.6c0.4-0.4,1-0.4,1.4,0
			c0.4,0.4,0.4,1,0,1.4l-15.6,15.6C145,320.9,144.8,320.9,144.5,320.9z"/>
		<path class="st0" d="M133.5,318.1c-4.3,0-10.5-1-15.2-5.9c-4.9-5-7.3-13.1-7.1-24.1c0-0.3,0.1-0.5,0.3-0.7l0.3-0.3
			c0.2-0.2,0.4-0.3,0.7-0.3c0.5,0,1,0,1.4,0c11.7,0,19.9,3.1,24.5,9.2c6.4,8.5,3.3,19.7,3.1,20.2c0,0.2-0.1,0.3-0.3,0.4l-0.3,0.3
			c-0.1,0.1-0.3,0.2-0.4,0.3C140.4,317.2,137.5,318.1,133.5,318.1z M113.2,288.9c-0.1,10,2.1,17.4,6.5,21.9
			c4.3,4.3,9.8,5.3,13.8,5.3c3,0,5.3-0.5,6.2-0.7c0.4-1.8,2.3-11.1-2.9-18.1c-4.2-5.6-11.9-8.4-22.9-8.4
			C113.7,288.9,113.4,288.9,113.2,288.9z"/>
		<path class="st0" d="M144.4,321c-0.3,0-0.5-0.1-0.7-0.3l-20.6-20.6c-0.4-0.4-0.4-1,0-1.4c0.4-0.4,1-0.4,1.4,0l20.6,20.6
			c0.4,0.4,0.4,1,0,1.4C144.9,320.9,144.7,321,144.4,321z"/>
		<path class="st0" d="M134,310c-0.6,0-1-0.4-1-1v-10c0-0.6,0.4-1,1-1s1,0.4,1,1v10C135,309.6,134.6,310,134,310z"/>
		<path class="st0" d="M134,310h-9c-0.6,0-1-0.4-1-1s0.4-1,1-1h9c0.6,0,1,0.4,1,1S134.6,310,134,310z"/>
	</g>
</g>
<rect x="104" y="280" class="st2" width="72" height="48"/>
</svg>
