<?xml version="1.0" encoding="utf-8"?>
<!-- Generator: Adobe Illustrator 18.0.0, SVG Export Plug-In . SVG Version: 6.00 Build 0)  -->
<!DOCTYPE svg PUBLIC "-//W3C//DTD SVG 1.1//EN" "http://www.w3.org/Graphics/SVG/1.1/DTD/svg11.dtd">
<svg version="1.1" id="Layer_1" xmlns="http://www.w3.org/2000/svg" xmlns:xlink="http://www.w3.org/1999/xlink" x="0px" y="0px"
	 width="24px" height="24px" viewBox="0 0 24 24" style="enable-background:new 0 0 24 24;" xml:space="preserve">
<style type="text/css">
	.st0{opacity:0.56;fill:#0A3142;}
	.st1{fill:none;}
</style>
<g>
	<path id="XMLID_13_" class="st0" d="M20.2,7.8c-0.1,7.3-4.8,12.3-11.8,12.6c-2.9,0.1-5-0.8-6.8-1.9c2.1,0.3,4.8-0.5,6.2-1.7
		c-2.1-0.2-3.3-1.3-3.9-3c0.6,0.1,1.2,0.1,1.8,0c-1.9-0.6-3.2-1.8-3.3-4.2C3,9.7,3.6,9.9,4.3,10C2.9,9.2,1.9,6.3,3,4.3
		c2.1,2.3,4.6,4.2,8.7,4.4c-1-4.4,4.8-6.8,7.3-3.9c1-0.2,1.9-0.6,2.7-1c-0.3,1-1,1.7-1.8,2.3c0.9-0.1,1.6-0.3,2.3-0.6
		C21.9,6.4,21,7.1,20.2,7.8z"/>
	<rect x="0" y="0" class="st1" width="24" height="24"/>
</g>
</svg>
