<svg id="Layer_1" xmlns="http://www.w3.org/2000/svg" width="24" height="24" viewBox="0 0 24 24"><style>.st0{opacity:.56;fill:#0a3142}.st1{fill:none}</style><path id="XMLID_13_" class="st0" d="M20.2 7.8c-.1 7.3-4.8 12.3-11.8 12.6-2.9.1-5-.8-6.8-1.9 2.1.3 4.8-.5 6.2-1.7-2.1-.2-3.3-1.3-3.9-3 .6.1 1.2.1 1.8 0-1.9-.6-3.2-1.8-3.3-4.2.6.1 1.2.3 1.9.4C2.9 9.2 1.9 6.3 3 4.3c2.1 2.3 4.6 4.2 8.7 4.4-1-4.4 4.8-6.8 7.3-3.9 1-.2 1.9-.6 2.7-1-.3 1-1 1.7-1.8 2.3.9-.1 1.6-.3 2.3-.6-.3.9-1.2 1.6-2 2.3z"/><path class="st1" d="M0 0h24v24H0z"/></svg>