<?xml version="1.0" encoding="utf-8"?>
<!-- Generator: Adobe Illustrator 17.1.0, SVG Export Plug-In . SVG Version: 6.00 Build 0)  -->
<!DOCTYPE svg PUBLIC "-//W3C//DTD SVG 1.0//EN" "http://www.w3.org/TR/2001/REC-SVG-20010904/DTD/svg10.dtd">
<svg version="1.0" id="Layer_1" xmlns="http://www.w3.org/2000/svg" xmlns:xlink="http://www.w3.org/1999/xlink" x="0px" y="0px"
	 viewBox="0 0 260 210" enable-background="new 0 0 260 210" xml:space="preserve">
<g>
	<g>
		<g>
			<g>
				<path fill="#FFFFFF" d="M119.1,24.9l-0.3,0.3c3.9,3.9,6.2,8.4,6.8,12.6c0.6,4.2-0.4,8-3.1,10.7c-2.7,2.7-6.3,3.9-10.4,3.3
					c-4.1-0.6-8.7-3-13.3-7.5c-1.9-1.9-3.7-5-5.4-8.5C91,30.5,89,24.3,87.7,19.4c-0.7-2.4-1.2-4.6-1.6-6.1c-0.2-0.8-0.3-1.4-0.4-1.8
					c-0.1-0.4-0.1-0.6-0.1-0.6L85.2,11l-0.1,0.4c0,0,0.4,0.1,1.1,0.3c2.5,0.6,9,2.3,15.7,4.7c3.3,1.2,6.7,2.6,9.7,4
					c3,1.5,5.5,3.1,7.2,4.8L119.1,24.9l0.3-0.3c-2-2-5.2-3.9-8.7-5.6c-10.7-5-25.3-8.4-25.4-8.4l-0.6-0.1l0.1,0.6
					c0,0,1.4,6.4,3.8,13.8c1.2,3.7,2.6,7.6,4.3,11.2c1.6,3.5,3.5,6.6,5.5,8.7c4.6,4.6,9.4,7.1,13.7,7.7c4.3,0.6,8.2-0.7,11.1-3.5
					c2.9-2.9,3.9-7,3.3-11.3c-0.7-4.4-3-9-7-13L119.1,24.9z"/>
				<path fill="#FFFFFF" d="M114.1,52.9c-0.7,0-1.4-0.1-2.1-0.2c-4.6-0.7-9.4-3.4-13.9-7.8c-1.9-1.9-3.7-4.7-5.6-8.7
					c-1.5-3.1-2.9-6.9-4.3-11.2c-2.4-7.4-3.7-13.8-3.8-13.8l-0.2-1l1,0.2c1.5,0.4,15.2,3.6,25.4,8.4c3.9,1.8,6.7,3.6,8.6,5.4l0,0
					l0.2,0.2c0,0,0,0,0,0l0.2,0.2l0,0c3.8,3.8,6.2,8.4,6.9,12.9c0.7,4.6-0.5,8.7-3.3,11.5C120.8,51.6,117.7,52.9,114.1,52.9z
					 M85.2,11.7c0.4,1.8,1.7,7.1,3.6,13.1c1.4,4.3,2.8,8,4.2,11.1c1.8,3.9,3.6,6.8,5.4,8.6c4.4,4.4,9.1,7,13.6,7.7
					c0.7,0.1,1.4,0.1,2.1,0.1c3.4,0,6.4-1.2,8.8-3.6c2.7-2.7,3.9-6.6,3.2-11.1c-0.7-4.4-3.1-8.9-6.7-12.6l-0.1,0.1
					c3.7,3.7,6,8.2,6.7,12.5c0.7,4.4-0.5,8.2-3.1,10.9c-2.8,2.8-6.5,4-10.7,3.4c-4.5-0.6-9.1-3.3-13.5-7.6c-1.8-1.8-3.6-4.7-5.4-8.5
					c-2.5-5.4-4.6-11.9-5.8-16.4c-0.7-2.5-1.3-4.7-1.6-6.1c-0.2-0.7-0.3-1.3-0.4-1.7C85.3,11.7,85.3,11.7,85.2,11.7z M86,11.9
					c0.1,0.4,0.2,0.8,0.3,1.4c0.3,1.4,0.9,3.5,1.6,6.1c1.3,4.4,3.3,10.9,5.8,16.3c1.8,3.8,3.6,6.6,5.3,8.4c4.3,4.3,8.8,6.8,13.1,7.5
					c4,0.6,7.6-0.6,10.2-3.2c2.5-2.5,3.6-6.3,3-10.4c-0.6-4.3-3-8.7-6.7-12.4l0,0c0,0,0,0,0,0l0,0c-1.5-1.5-3.9-3.1-7.1-4.7
					c-2.7-1.3-5.9-2.7-9.7-4c-6.7-2.4-13.2-4.1-15.6-4.7L86,11.9z M85.9,11.3l0.4,0.1c2.5,0.6,9,2.3,15.7,4.7c3.8,1.3,7,2.7,9.7,4.1
					c3.1,1.6,5.5,3.1,7.1,4.7l0.1-0.1c-1.8-1.7-4.7-3.5-8.5-5.3c-9.3-4.4-21.5-7.5-24.6-8.2L85.9,11.3z"/>
			</g>
			<g>
				<polyline fill="#FFFFFF" points="128.6,54 99,24.4 98.5,24.8 128.2,54.5 				"/>
				<polygon fill="#FFFFFF" points="128,54.7 98.1,24.8 99,24 128.8,53.8 128.4,54.2 99,24.8 98.9,24.8 128.4,54.3 				"/>
			</g>
			<g>
				<polyline fill="#FFFFFF" points="117.3,42.9 117.3,35.1 116.7,35.1 116.7,42.9 				"/>
				<polygon fill="#FFFFFF" points="117.6,42.9 117,42.9 117,35.4 117,35.4 117,42.9 116.4,42.9 116.4,34.8 117.6,34.8 				"/>
			</g>
			<g>
				<polyline fill="#FFFFFF" points="112.9,38.4 112.9,30.7 112.3,30.7 112.3,38.4 				"/>
				<polygon fill="#FFFFFF" points="112.5,38.4 112,38.4 112,30.4 113.2,30.4 113.2,38.4 112.6,38.4 112.6,31 112.5,31 				"/>
			</g>
			<g>
				<polyline fill="#FFFFFF" points="108.5,34 108.5,26.3 107.8,26.3 107.8,34 				"/>
				<polygon fill="#FFFFFF" points="108.7,34 108.2,34 108.2,26.5 108.1,26.5 108.1,34 107.5,34 107.5,26 108.7,26 				"/>
			</g>
			<g>
				<polyline fill="#FFFFFF" points="104,29.6 104,21.8 103.4,21.8 103.4,29.6 				"/>
				<polygon fill="#FFFFFF" points="104.3,29.6 103.7,29.6 103.7,22.1 103.7,22.1 103.7,29.6 103.1,29.6 103.1,21.6 104.3,21.6 				
					"/>
			</g>
			<g>
				<polyline fill="#FFFFFF" points="117,42.5 109.3,42.5 109.3,43.2 117,43.2 				"/>
				<polygon fill="#FFFFFF" points="117,43.5 109,43.5 109,42.3 117,42.3 117,42.8 109.5,42.8 109.5,42.9 117,42.9 				"/>
			</g>
			<g>
				<polyline fill="#FFFFFF" points="112.6,38.1 104.8,38.1 104.8,38.7 112.6,38.7 				"/>
				<polygon fill="#FFFFFF" points="112.6,39 104.5,39 104.5,37.8 112.6,37.8 112.6,38.4 105.1,38.4 105.1,38.5 112.6,38.5 				"/>
			</g>
			<g>
				<polyline fill="#FFFFFF" points="108.1,33.7 100.4,33.7 100.4,34.3 108.1,34.3 				"/>
				<polygon fill="#FFFFFF" points="108.1,34.6 100.1,34.6 100.1,33.4 108.1,33.4 108.1,34 100.7,34 100.7,34 108.1,34 				"/>
			</g>
			<g>
				<polyline fill="#FFFFFF" points="103.7,29.3 96,29.3 96,29.9 103.7,29.9 				"/>
				<polygon fill="#FFFFFF" points="103.7,30.2 95.7,30.2 95.7,29 103.7,29 103.7,29.6 96.3,29.6 96.3,29.6 103.7,29.6 				"/>
			</g>
		</g>
		<g>
			<g>
				<path fill="#FFFFFF" d="M136.9,24.9l0.3,0.3c-3.9,3.9-6.2,8.4-6.8,12.6c-0.6,4.2,0.4,8,3.1,10.7c2.7,2.7,6.3,3.9,10.4,3.3
					c4.1-0.6,8.7-3,13.3-7.5c1.9-1.9,3.7-5,5.4-8.5c2.4-5.2,4.4-11.4,5.8-16.3c0.7-2.4,1.2-4.6,1.6-6.1c0.2-0.8,0.3-1.4,0.4-1.8
					c0.1-0.4,0.1-0.6,0.1-0.6l0.4,0.1l0.1,0.4c0,0-0.4,0.1-1.1,0.3c-2.5,0.6-9,2.3-15.7,4.7c-3.3,1.2-6.7,2.6-9.7,4
					c-3,1.5-5.5,3.1-7.2,4.8L136.9,24.9l-0.3-0.3c2-2,5.2-3.9,8.7-5.6c10.7-5,25.3-8.4,25.4-8.4l0.6-0.1l-0.1,0.6
					c0,0-1.4,6.4-3.8,13.8c-1.2,3.7-2.6,7.6-4.3,11.2c-1.6,3.5-3.5,6.6-5.5,8.7c-4.6,4.6-9.4,7.1-13.7,7.7
					c-4.3,0.6-8.2-0.7-11.1-3.5c-2.9-2.9-3.9-7-3.3-11.3c0.7-4.4,3-9,7-13L136.9,24.9z"/>
				<path fill="#FFFFFF" d="M141.8,52.9c-3.5,0-6.7-1.3-9.2-3.7c-2.8-2.8-4-7-3.3-11.5c0.7-4.5,3.1-9.1,6.9-12.9l0,0l0.2-0.2
					c0,0,0,0,0,0l0.2-0.2l0,0c1.9-1.8,4.7-3.6,8.6-5.4c10.2-4.8,23.9-8.1,25.4-8.4l1-0.2l-0.2,1c0,0-1.4,6.4-3.8,13.8
					c-1.4,4.3-2.8,8.1-4.3,11.2c-1.9,4-3.7,6.9-5.6,8.7c-4.5,4.5-9.3,7.2-13.9,7.8C143.3,52.8,142.5,52.9,141.8,52.9z M136.6,25.1
					c-3.7,3.8-6.1,8.2-6.7,12.6c-0.7,4.4,0.5,8.3,3.2,11.1c2.3,2.3,5.4,3.6,8.8,3.6c0.7,0,1.4-0.1,2.1-0.1c4.5-0.6,9.2-3.3,13.6-7.7
					c1.8-1.8,3.6-4.7,5.4-8.6c1.4-3.1,2.9-6.8,4.2-11.1c1.9-6,3.2-11.3,3.6-13.1c-0.1,0-0.1,0-0.2,0c-0.1,0.4-0.2,1-0.4,1.7
					c-0.3,1.4-0.9,3.5-1.6,6.1c-1.3,4.5-3.3,10.9-5.8,16.4c-1.8,3.9-3.6,6.7-5.4,8.5c-4.4,4.4-9,7-13.5,7.6c-0.7,0.1-1.4,0.1-2,0.1
					h0c-3.3,0-6.3-1.2-8.6-3.5c-2.7-2.7-3.8-6.6-3.1-10.9c0.7-4.4,3-8.8,6.7-12.5L136.6,25.1z M137.3,25.4
					c-3.7,3.7-6.1,8.1-6.7,12.4c-0.6,4.2,0.4,7.9,3,10.4c2.2,2.2,5.1,3.4,8.2,3.4h0c0.6,0,1.3,0,2-0.1c4.3-0.6,8.9-3.2,13.1-7.5
					c1.8-1.7,3.5-4.6,5.3-8.4c2.5-5.4,4.5-11.8,5.8-16.3c0.7-2.5,1.3-4.7,1.6-6.1c0.1-0.5,0.2-1,0.3-1.4l-0.1,0
					c-2.5,0.6-9,2.3-15.6,4.7c-3.7,1.3-7,2.7-9.7,4C141.3,22.2,138.9,23.8,137.3,25.4L137.3,25.4C137.3,25.4,137.3,25.4,137.3,25.4
					L137.3,25.4z M137,24.7l0.1,0.1c1.6-1.5,4-3.1,7.1-4.7c2.7-1.4,6-2.7,9.7-4.1c6.7-2.4,13.2-4.1,15.7-4.7l0.4-0.1l0-0.2
					c-3.2,0.8-15.3,3.9-24.6,8.2C141.7,21.1,138.9,22.9,137,24.7z"/>
			</g>
			<g>
				<polyline fill="#FFFFFF" points="127.3,54 157,24.4 157.4,24.8 127.8,54.5 				"/>
				<polygon fill="#FFFFFF" points="128,54.7 127.6,54.3 157,24.8 157,24.8 127.5,54.2 127.1,53.8 157,24 157.8,24.8 				"/>
			</g>
			<g>
				<polyline fill="#FFFFFF" points="138.6,42.9 138.6,35.1 139.3,35.1 139.3,42.9 				"/>
				<polygon fill="#FFFFFF" points="139.6,42.9 139,42.9 139,35.4 138.9,35.4 138.9,42.9 138.4,42.9 138.4,34.8 139.6,34.8 				"/>
			</g>
			<g>
				<polyline fill="#FFFFFF" points="143.1,38.4 143.1,30.7 143.7,30.7 143.7,38.4 				"/>
				<polygon fill="#FFFFFF" points="144,38.4 143.4,38.4 143.4,31 143.4,31 143.4,38.4 142.8,38.4 142.8,30.4 144,30.4 				"/>
			</g>
			<g>
				<polyline fill="#FFFFFF" points="147.5,34 147.5,26.3 148.1,26.3 148.1,34 				"/>
				<polygon fill="#FFFFFF" points="148.4,34 147.8,34 147.8,26.5 147.8,26.5 147.8,34 147.2,34 147.2,26 148.4,26 				"/>
			</g>
			<g>
				<polyline fill="#FFFFFF" points="151.9,29.6 151.9,21.8 152.6,21.8 152.6,29.6 				"/>
				<polygon fill="#FFFFFF" points="152.8,29.6 152.3,29.6 152.3,22.1 152.2,22.1 152.2,29.6 151.6,29.6 151.6,21.6 152.8,21.6 				
					"/>
			</g>
			<g>
				<polyline fill="#FFFFFF" points="139,42.5 146.7,42.5 146.7,43.2 139,43.2 				"/>
				<polygon fill="#FFFFFF" points="147,43.5 139,43.5 139,42.9 146.4,42.9 146.4,42.8 139,42.8 139,42.3 147,42.3 				"/>
			</g>
			<g>
				<polyline fill="#FFFFFF" points="143.4,38.1 151.1,38.1 151.1,38.7 143.4,38.7 				"/>
				<polygon fill="#FFFFFF" points="151.4,39 143.4,39 143.4,38.5 150.9,38.5 150.9,38.4 143.4,38.4 143.4,37.8 151.4,37.8 				"/>
			</g>
			<g>
				<polyline fill="#FFFFFF" points="147.8,33.7 155.6,33.7 155.6,34.3 147.8,34.3 				"/>
				<polygon fill="#FFFFFF" points="155.8,34.6 147.8,34.6 147.8,34 155.3,34 155.3,34 147.8,34 147.8,33.4 155.8,33.4 				"/>
			</g>
			<g>
				<polyline fill="#FFFFFF" points="152.2,29.3 160,29.3 160,29.9 152.2,29.9 				"/>
				<polygon fill="#FFFFFF" points="160.3,30.2 152.2,30.2 152.2,29.6 159.7,29.6 159.7,29.6 152.2,29.6 152.2,29 160.3,29 				"/>
			</g>
		</g>
	</g>
	<g>
		<g>
			<g>
				<path fill="#FFFFFF" d="M29.1,137.4V82.4h10.1c4.7,0,8.2,1.2,10.4,3.7c2.2,2.4,3.3,6.3,3.3,11.5c0,7.3-2.2,12.2-6.6,14.4
					c-2.1,0.9-5.1,1.4-8.9,1.5v23.9H29.1z M37.4,106.2c2.6-0.1,4.4-0.6,5.4-1.7c1.1-1.1,1.6-3.2,1.6-6.2c0-3.1-0.5-5.4-1.6-6.8
					c-1-1.4-2.6-2-4.9-2h-0.5V106.2z"/>
				<path fill="#00AA8D" d="M39.2,82.9c4.6,0,8,1.2,10.1,3.5c2.1,2.4,3.1,6.1,3.1,11.2c0,7.2-2.1,11.8-6.3,13.9
					c-2.1,1-5.2,1.4-9.2,1.4v23.9h-7.3V82.9H39.2 M36.9,106.7c3,0,5.1-0.6,6.2-1.8c1.2-1.2,1.7-3.4,1.7-6.6c0-3.2-0.6-5.6-1.7-7.1
					c-1.1-1.5-2.9-2.2-5.3-2.2h-1V106.7 M39.2,81.9h-9.6h-1v1v53.9v1h1h7.3h1v-1v-22.9c3.7-0.1,6.5-0.6,8.6-1.5
					c4.6-2.3,6.9-7.3,6.9-14.8c0-5.3-1.1-9.3-3.4-11.8C47.7,83.2,44.1,81.9,39.2,81.9L39.2,81.9z M37.9,90.1L37.9,90.1
					c2.1,0,3.6,0.6,4.5,1.8c1,1.3,1.5,3.5,1.5,6.5c0,2.9-0.5,4.8-1.5,5.9c-0.8,0.9-2.3,1.4-4.5,1.5V90.1L37.9,90.1z"/>
			</g>
			<g>
				<polygon fill="#FFFFFF" points="73.2,137.4 73.2,82.4 93.5,82.4 93.5,89.6 81.5,89.6 81.5,105.7 92.2,105.7 92.2,112.8 
					81.5,112.8 81.5,130.2 93.5,130.2 93.5,137.4 				"/>
				<path fill="#00AA8D" d="M93,82.9v6.1H81v17.1h10.7v6.1H81v18.4H93v6.1H73.7V82.9H93 M94,81.9h-1H73.7h-1v1v53.9v1h1H93h1v-1
					v-6.1v-1h-1H82v-16.4h9.7h1v-1v-6.1v-1h-1H82V90.1H93h1v-1v-6.1V81.9L94,81.9z"/>
			</g>
			<g>
				<path fill="#FFFFFF" d="M124.9,138c-3.2,0-6-0.9-8.2-2.7l-0.2-0.1v-8.4l0.8,0.6c2.5,1.8,4.8,2.7,6.8,2.7c1.8,0,3.2-0.6,4.3-1.8
					c1-1.2,1.6-2.9,1.6-5c0-1.9-0.4-3.6-1.2-5c-0.4-0.7-1-1.5-1.8-2.5c-0.8-0.9-1.8-2-2.9-3.2c-1.8-1.8-3.4-3.4-4.6-4.8
					c-1.2-1.4-2.2-2.7-2.7-3.8c-1.2-2.1-1.7-4.8-1.7-8c0-4.3,1.1-7.8,3.4-10.4c2.3-2.6,5.4-3.9,9.3-3.9c2.7,0,5.2,0.6,7.6,1.9
					l0.3,0.1v8.4l-0.8-0.6c-2.1-1.5-4-2.3-5.7-2.3c-1.8,0-3.2,0.6-4.3,1.9c-1.1,1.2-1.7,2.8-1.7,4.8c0,1.8,0.4,3.3,1.2,4.6
					c0.4,0.7,1.1,1.6,2.1,2.7c1,1.1,2.3,2.5,3.9,4.1c3,3,5,5.7,6.1,7.9c1.1,2.2,1.7,4.9,1.7,8c0,4.3-1.2,7.9-3.7,10.6
					C131.9,136.7,128.7,138,124.9,138z"/>
				<path fill="#00AA8D" d="M127.5,82.2c2.6,0,5.1,0.6,7.4,1.9v7.1c-2.2-1.6-4.2-2.4-6-2.4c-1.9,0-3.5,0.7-4.7,2
					c-1.2,1.3-1.8,3-1.8,5.1c0,1.9,0.4,3.5,1.3,4.9c0.4,0.7,1.2,1.7,2.2,2.8c1,1.1,2.3,2.5,3.9,4.1c3,3,5,5.6,6,7.8
					c1.1,2.1,1.6,4.7,1.6,7.8c0,4.2-1.2,7.6-3.5,10.3c-2.4,2.6-5.4,3.9-9,3.9c-3.1,0-5.7-0.9-7.9-2.6v-7.2c2.6,1.9,4.9,2.8,7.1,2.8
					c2,0,3.5-0.7,4.6-2c1.1-1.3,1.7-3.1,1.7-5.4c0-2-0.4-3.7-1.3-5.3c-0.4-0.7-1.1-1.6-1.9-2.6c-0.8-1-1.8-2-3-3.2
					c-1.8-1.8-3.4-3.4-4.6-4.8c-1.2-1.4-2.1-2.6-2.7-3.7c-1.1-2-1.7-4.6-1.7-7.8c0-4.2,1.1-7.6,3.3-10
					C120.8,83.5,123.7,82.2,127.5,82.2 M127.5,81.2c-4,0-7.3,1.4-9.7,4.1c-2.3,2.6-3.5,6.2-3.5,10.7c0,3.3,0.6,6,1.8,8.2
					c0.6,1.1,1.6,2.4,2.8,3.8c1.2,1.4,2.8,3.1,4.6,4.9c1.2,1.2,2.1,2.2,2.9,3.2c0.8,0.9,1.4,1.7,1.8,2.4c0.8,1.4,1.2,3,1.2,4.8
					c0,2-0.5,3.6-1.4,4.7c-0.9,1.1-2.2,1.6-3.9,1.6c-1.9,0-4.1-0.9-6.5-2.6l-1.6-1.2v2v7.2v0.5l0.4,0.3c2.4,1.8,5.2,2.8,8.5,2.8
					c4,0,7.3-1.4,9.8-4.3c2.5-2.9,3.8-6.6,3.8-11c0-3.2-0.6-6-1.7-8.2c-1.1-2.3-3.2-5-6.2-8c-1.6-1.6-2.9-3-3.9-4.1
					c-1-1.1-1.7-2-2.1-2.7c-0.8-1.2-1.1-2.6-1.1-4.3c0-1.9,0.5-3.4,1.5-4.4c1-1.2,2.3-1.7,4-1.7c1.5,0,3.4,0.7,5.4,2.2l1.6,1.1v-1.9
					v-7.1v-0.6l-0.5-0.3C132.8,81.9,130.2,81.2,127.5,81.2L127.5,81.2z"/>
			</g>
			<g>
				<polygon fill="#FFFFFF" points="165.2,137.4 165.2,89.8 156.8,89.8 156.8,82.4 181.5,82.4 181.5,89.8 173.3,89.8 173.3,137.4 
									"/>
				<path fill="#00AA8D" d="M181,82.9v6.4h-8.1v47.6h-7.1V89.3h-8.4v-6.4H181 M182,81.9h-1h-23.7h-1v1v6.4v1h1h7.4v46.6v1h1h7.1h1
					v-1V90.3h7.1h1v-1v-6.4V81.9L182,81.9z"/>
			</g>
			<g>
				<path fill="#FFFFFF" d="M215.8,138c-5.4,0-9.3-2.3-11.5-6.7c-2.1-4.3-3.2-11.9-3.2-22.7c0-9.6,1.1-16.6,3.2-20.6
					c2.2-4.2,6-6.3,11.2-6.3c4.7,0,8.2,1.6,10.5,4.9c1.5,2.1,2.6,5.2,3.2,9c0.7,3.5,1,8.8,1,15.6c0,9.6-1.1,16.5-3.2,20.5
					C224.7,135.9,221,138,215.8,138z M215.6,89.3c-2.4,0-3.9,1.3-4.7,3.9c-0.8,2.8-1.2,8.5-1.2,17c0,7.8,0.4,13.3,1.3,16.3
					c0.8,2.7,2.4,4,4.6,4c2.2,0,3.7-1.2,4.6-3.7c0.9-2.6,1.3-7.6,1.3-14.7c0-9.3-0.4-15.5-1.2-18.5C219.5,90.7,218,89.3,215.6,89.3z
					"/>
				<path fill="#00AA8D" d="M215.5,82.2c4.5,0,7.9,1.5,10.1,4.6c1.4,2.1,2.5,5,3.1,8.8c0.7,3.5,1,8.7,1,15.5
					c0,9.5-1.1,16.3-3.2,20.3c-2.1,4-5.7,6-10.7,6c-5.2,0-8.9-2.2-11.1-6.5c-2.1-4.2-3.2-11.7-3.2-22.5c0-9.6,1-16.4,3.1-20.4
					C206.8,84.2,210.4,82.2,215.5,82.2 M215.6,130.9c2.4,0,4.1-1.4,5-4.1c0.9-2.7,1.4-7.6,1.4-14.8c0-9.3-0.4-15.5-1.3-18.6
					c-0.8-3.1-2.6-4.6-5.1-4.6c-2.6,0-4.3,1.4-5.2,4.2c-0.8,2.8-1.3,8.5-1.3,17.1c0,7.9,0.4,13.4,1.3,16.4
					C211.4,129.5,213.1,130.9,215.6,130.9 M215.5,81.2c-5.4,0-9.3,2.2-11.6,6.5c-2.2,4.2-3.3,11-3.3,20.8c0,11,1.1,18.5,3.3,22.9
					c2.3,4.7,6.3,7,12,7c5.4,0,9.2-2.2,11.5-6.5c2.2-4.2,3.3-11,3.3-20.8c0-6.8-0.3-12.1-1-15.7c-0.7-3.9-1.8-7-3.3-9.2
					C224,82.9,220.3,81.2,215.5,81.2L215.5,81.2z M215.6,129.9c-1.3,0-3.1-0.4-4.1-3.6c-0.8-2.9-1.3-8.4-1.3-16.1
					c0-8.4,0.4-14.1,1.2-16.8c0.7-2.4,2.1-3.5,4.2-3.5c1.3,0,3.2,0.4,4.2,3.9c0.8,3,1.2,9.1,1.2,18.3c0,7.1-0.4,12-1.3,14.5
					C219,128.8,217.7,129.9,215.6,129.9L215.6,129.9z"/>
			</g>
		</g>
		<g>
			<g>
				<path fill="#FFFFFF" d="M31.3,137.4V82.4h10.1c4.7,0,8.2,1.2,10.4,3.7c2.2,2.4,3.3,6.3,3.3,11.5c0,7.3-2.2,12.2-6.6,14.4
					c-2.1,0.9-5.1,1.4-8.9,1.5v23.9H31.3z M39.6,106.2c2.6-0.1,4.4-0.6,5.4-1.7c1.1-1.1,1.6-3.2,1.6-6.2c0-3.1-0.5-5.4-1.6-6.8
					c-1-1.4-2.6-2-4.9-2h-0.5V106.2z"/>
				<path fill="#00AA8D" d="M41.4,82.9c4.6,0,8,1.2,10.1,3.5c2.1,2.4,3.1,6.1,3.1,11.2c0,7.2-2.1,11.8-6.3,13.9
					c-2.1,1-5.2,1.4-9.2,1.4v23.9h-7.3V82.9H41.4 M39.1,106.7c3,0,5.1-0.6,6.2-1.8c1.2-1.2,1.7-3.4,1.7-6.6c0-3.2-0.6-5.6-1.7-7.1
					c-1.1-1.5-2.9-2.2-5.3-2.2h-1V106.7 M41.4,81.9h-9.6h-1v1v53.9v1h1h7.3h1v-1v-22.9c3.7-0.1,6.5-0.6,8.6-1.5
					c4.6-2.3,6.9-7.3,6.9-14.8c0-5.3-1.1-9.3-3.4-11.8C49.9,83.2,46.3,81.9,41.4,81.9L41.4,81.9z M40.1,90.1L40.1,90.1
					c2.1,0,3.6,0.6,4.5,1.8c1,1.3,1.5,3.5,1.5,6.5c0,2.9-0.5,4.8-1.5,5.9c-0.8,0.9-2.3,1.4-4.5,1.5V90.1L40.1,90.1z"/>
			</g>
			<g>
				<polygon fill="#FFFFFF" points="75.4,137.4 75.4,82.4 95.7,82.4 95.7,89.6 83.7,89.6 83.7,105.7 94.4,105.7 94.4,112.8 
					83.7,112.8 83.7,130.2 95.7,130.2 95.7,137.4 				"/>
				<path fill="#00AA8D" d="M95.2,82.9v6.1H83.2v17.1h10.7v6.1H83.2v18.4h12.1v6.1H75.9V82.9H95.2 M96.2,81.9h-1H75.9h-1v1v53.9v1h1
					h19.3h1v-1v-6.1v-1h-1H84.2v-16.4h9.7h1v-1v-6.1v-1h-1h-9.7V90.1h11.1h1v-1v-6.1V81.9L96.2,81.9z"/>
			</g>
			<g>
				<path fill="#FFFFFF" d="M127.1,138c-3.2,0-6-0.9-8.2-2.7l-0.2-0.1v-8.4l0.8,0.6c2.5,1.8,4.8,2.7,6.8,2.7c1.8,0,3.2-0.6,4.3-1.8
					c1-1.2,1.6-2.9,1.6-5c0-1.9-0.4-3.6-1.2-5c-0.4-0.7-1-1.5-1.8-2.5c-0.8-0.9-1.8-2-2.9-3.2c-1.8-1.8-3.4-3.4-4.6-4.8
					c-1.2-1.4-2.2-2.7-2.7-3.8c-1.2-2.1-1.7-4.8-1.7-8c0-4.3,1.1-7.8,3.4-10.4c2.3-2.6,5.4-3.9,9.3-3.9c2.7,0,5.2,0.6,7.6,1.9
					l0.3,0.1v8.4l-0.8-0.6c-2.1-1.5-4-2.3-5.7-2.3c-1.8,0-3.2,0.6-4.3,1.9c-1.1,1.2-1.7,2.8-1.7,4.8c0,1.8,0.4,3.3,1.2,4.6
					c0.4,0.7,1.1,1.6,2.1,2.7c1,1.1,2.3,2.5,3.9,4.1c3,3,5,5.7,6.1,7.9c1.1,2.2,1.7,4.9,1.7,8c0,4.3-1.2,7.9-3.7,10.6
					C134.1,136.7,130.9,138,127.1,138z"/>
				<path fill="#00AA8D" d="M129.7,82.2c2.6,0,5.1,0.6,7.4,1.9v7.1c-2.2-1.6-4.2-2.4-6-2.4c-1.9,0-3.5,0.7-4.7,2
					c-1.2,1.3-1.8,3-1.8,5.1c0,1.9,0.4,3.5,1.3,4.9c0.4,0.7,1.2,1.7,2.2,2.8c1,1.1,2.3,2.5,3.9,4.1c3,3,5,5.6,6,7.8
					c1.1,2.1,1.6,4.7,1.6,7.8c0,4.2-1.2,7.6-3.5,10.3c-2.4,2.6-5.4,3.9-9,3.9c-3.1,0-5.7-0.9-7.9-2.6v-7.2c2.6,1.9,4.9,2.8,7.1,2.8
					c2,0,3.5-0.7,4.6-2c1.1-1.3,1.7-3.1,1.7-5.4c0-2-0.4-3.7-1.3-5.3c-0.4-0.7-1.1-1.6-1.9-2.6c-0.8-1-1.8-2-3-3.2
					c-1.8-1.8-3.4-3.4-4.6-4.8c-1.2-1.4-2.1-2.6-2.7-3.7c-1.1-2-1.7-4.6-1.7-7.8c0-4.2,1.1-7.6,3.3-10
					C123,83.5,125.9,82.2,129.7,82.2 M129.7,81.2c-4,0-7.3,1.4-9.7,4.1c-2.3,2.6-3.5,6.2-3.5,10.7c0,3.3,0.6,6,1.8,8.2
					c0.6,1.1,1.6,2.4,2.8,3.8c1.2,1.4,2.8,3.1,4.6,4.9c1.2,1.2,2.1,2.2,2.9,3.2c0.8,0.9,1.4,1.7,1.8,2.4c0.8,1.4,1.2,3,1.2,4.8
					c0,2-0.5,3.6-1.4,4.7c-0.9,1.1-2.2,1.6-3.9,1.6c-1.9,0-4.1-0.9-6.5-2.6l-1.6-1.2v2v7.2v0.5l0.4,0.3c2.4,1.8,5.2,2.8,8.5,2.8
					c4,0,7.3-1.4,9.8-4.3c2.5-2.9,3.8-6.6,3.8-11c0-3.2-0.6-6-1.7-8.2c-1.1-2.3-3.2-5-6.2-8c-1.6-1.6-2.9-3-3.9-4.1
					c-1-1.1-1.7-2-2.1-2.7c-0.8-1.2-1.1-2.6-1.1-4.3c0-1.9,0.5-3.4,1.5-4.4c1-1.2,2.3-1.7,4-1.7c1.5,0,3.4,0.7,5.4,2.2l1.6,1.1v-1.9
					v-7.1v-0.6l-0.5-0.3C135.1,81.9,132.4,81.2,129.7,81.2L129.7,81.2z"/>
			</g>
			<g>
				<polygon fill="#FFFFFF" points="167.4,137.4 167.4,89.8 159,89.8 159,82.4 183.7,82.4 183.7,89.8 175.5,89.8 175.5,137.4 				
					"/>
				<path fill="#00AA8D" d="M183.2,82.9v6.4H175v47.6h-7.1V89.3h-8.4v-6.4H183.2 M184.2,81.9h-1h-23.7h-1v1v6.4v1h1h7.4v46.6v1h1
					h7.1h1v-1V90.3h7.1h1v-1v-6.4V81.9L184.2,81.9z"/>
			</g>
			<g>
				<path fill="#FFFFFF" d="M218,138c-5.4,0-9.3-2.3-11.5-6.7c-2.1-4.3-3.2-11.9-3.2-22.7c0-9.6,1.1-16.6,3.2-20.6
					c2.2-4.2,6-6.3,11.2-6.3c4.7,0,8.2,1.6,10.5,4.9c1.5,2.1,2.6,5.2,3.2,9c0.7,3.5,1,8.8,1,15.6c0,9.6-1.1,16.5-3.2,20.5
					C226.9,135.9,223.2,138,218,138z M217.9,89.3c-2.4,0-3.9,1.3-4.7,3.9c-0.8,2.8-1.2,8.5-1.2,17c0,7.8,0.4,13.3,1.3,16.3
					c0.8,2.7,2.4,4,4.6,4c2.2,0,3.7-1.2,4.6-3.7c0.9-2.6,1.3-7.6,1.3-14.7c0-9.3-0.4-15.5-1.2-18.5
					C221.7,90.7,220.2,89.3,217.9,89.3z"/>
				<path fill="#00AA8D" d="M217.7,82.2c4.5,0,7.9,1.5,10.1,4.6c1.4,2.1,2.5,5,3.1,8.8c0.7,3.5,1,8.7,1,15.5
					c0,9.5-1.1,16.3-3.2,20.3c-2.1,4-5.7,6-10.7,6c-5.2,0-8.9-2.2-11.1-6.5c-2.1-4.2-3.2-11.7-3.2-22.5c0-9.6,1-16.4,3.1-20.4
					C209,84.2,212.6,82.2,217.7,82.2 M217.9,130.9c2.4,0,4.1-1.4,5-4.1c0.9-2.7,1.4-7.6,1.4-14.8c0-9.3-0.4-15.5-1.3-18.6
					c-0.8-3.1-2.6-4.6-5.1-4.6s-4.3,1.4-5.2,4.2c-0.8,2.8-1.3,8.5-1.3,17.1c0,7.9,0.4,13.4,1.3,16.4
					C213.7,129.5,215.4,130.9,217.9,130.9 M217.7,81.2c-5.4,0-9.3,2.2-11.6,6.5c-2.2,4.2-3.3,11-3.3,20.8c0,11,1.1,18.5,3.3,22.9
					c2.3,4.7,6.3,7,12,7c5.4,0,9.2-2.2,11.5-6.5c2.2-4.2,3.3-11,3.3-20.8c0-6.8-0.3-12.1-1-15.7c-0.7-3.9-1.8-7-3.3-9.2
					C226.2,82.9,222.5,81.2,217.7,81.2L217.7,81.2z M217.9,129.9c-1.3,0-3.1-0.4-4.1-3.6c-0.8-2.9-1.3-8.4-1.3-16.1
					c0-8.4,0.4-14.1,1.2-16.8c0.7-2.4,2.1-3.5,4.2-3.5c1.3,0,3.2,0.4,4.2,3.9c0.8,3,1.2,9.1,1.2,18.3c0,7.1-0.4,12-1.3,14.5
					C221.2,128.8,219.9,129.9,217.9,129.9L217.9,129.9z"/>
			</g>
		</g>
	</g>
	<rect x="11" y="68.4" fill="none" stroke="#FFFFFF" stroke-width="2" stroke-miterlimit="10" width="238" height="83.1"/>
	<g>
		<rect x="66.4" y="168.4" fill="#FFFFFF" width="123.8" height="22.1"/>
		<polyline fill="#FFFFFF" points="66.4,191.6 72.9,191.6 72.9,198 		"/>
		<polygon fill="#FFFFFF" points="71.3,198.2 65.3,192.2 65.3,176.1 43.8,176.1 49.3,187.2 43.8,198.2 		"/>
		<polyline fill="#FFFFFF" points="183.8,198 183.8,191.6 190.2,191.6 		"/>
		<polygon fill="#FFFFFF" points="185.4,198.2 191.4,192.2 191.4,176.1 212.9,176.1 207.4,187.2 212.9,198.2 		"/>
		<path fill="#FFFFFF" d="M190.2,168.4v7.7h22.7l-5.5,11.1l5.5,11h-29.1v-6v-1.7H72.9v1.7v6H43.8l5.5-11l-5.5-11.1h22.7v-7.7H190.2
			 M192.5,166.2h-2.2H66.4h-2.2v2.2v5.5H43.8h-3.6l1.6,3.2l5,10.1l-5,10l-1.6,3.2h3.6h29.1h2.2v-2.2v-5.5h106.5v5.5v2.2h2.2h29.1
			h3.6l-1.6-3.2l-5-10l5-10.1l1.6-3.2h-3.6h-20.5v-5.5V166.2L192.5,166.2z"/>
		<path fill="#00AA8D" d="M190.2,168.4v7.7h22.7l-5.5,11.1l5.5,11h-29.1v-6v-1.7H72.9v1.7v6H43.8l5.5-11l-5.5-11.1h22.7v-7.7H190.2
			 M191.4,167.3h-1.1H66.4h-1.1v1.1v6.6H43.8H42l0.8,1.6l5.3,10.6l-5.3,10.5l-0.8,1.6h1.8h29.1H74v-1.1v-6v-0.6h108.7v0.6v6v1.1h1.1
			h29.1h1.8l-0.8-1.6l-5.3-10.5l5.3-10.6l0.8-1.6h-1.8h-21.6v-6.6V167.3L191.4,167.3z"/>
		
			<text transform="matrix(1 0 0 1 92.0864 183.8438)" fill="#00AA8D" font-family="'Futura-CondensedExtraBold'" font-size="11.0543" letter-spacing="2">ANO. 2015</text>
	</g>
</g>
</svg>