<svg viewBox="0 0 512 512" xmlns="http://www.w3.org/2000/svg"><path d="M492.76 442.732c0 34.17-27.7 61.872-61.872 61.872H81.145c-34.17 0-61.874-27.7-61.874-61.872V92.987c0-34.17 27.708-61.873 61.88-61.873h349.74c34.17 0 61.872 27.7 61.872 61.873v349.745z" fill="#0A5772"/><path d="M492.76 417.988c0 34.172-27.7 61.873-61.872 61.873H81.145c-34.17 0-61.874-27.7-61.874-61.87V68.245c0-34.17 27.708-61.872 61.88-61.872h349.74c34.17 0 61.872 27.705 61.872 61.875V417.99z" fill="#0083BE"/><path d="M492.76 417.988V256.43a309.64 309.64 0 0 0-6.076-6c-4.064-4.26-8.33-8.344-12.494-12.505-4.164-4.163-8.25-8.427-12.506-12.495-4.064-4.26-8.33-8.344-12.494-12.505l-50-50c-4.123-4.122-8.186-8.316-12.375-12.37-5.834-5.642-13.697-8.773-21.803-8.773H146.93c-7.753 0-15.32 2.914-21.05 8.142-6.442 5.876-10.18 14.323-10.18 23.043v139.39c0 5.677 1.183 11.18 3.986 16.163 2.677 4.754 6.76 8.546 10.665 12.288 4.076 4.254 8.336 8.344 12.5 12.505 8.334 8.332 16.665 16.67 25 25 16.67 16.664 33.33 33.337 50 50 16.67 16.664 33.33 33.337 50 50 .51.51 1.015 1.028 1.52 1.55h161.52c34.17-.002 61.874-27.703 61.874-61.875z" fill="#0064A2"/><path d="M365.15 141.78H146.883c-17.21 0-31.182 13.97-31.182 31.182v140.312c0 17.205 13.976 31.182 31.187 31.182H365.15c17.207 0 31.182-13.977 31.182-31.182V172.962c0-17.213-13.975-31.18-31.182-31.18zM211.21 256.75l26.747 23.36c5.088 4.45 11.53 6.637 18.06 6.637 6.528 0 12.978-2.218 18.067-6.636l26.734-23.36-.62.62 60.874 60.857H150.958l60.868-60.857-.615-.618zm-72.052 49.686V193.702l60.132 52.61-60.132 60.124zM312.75 246.31l60.13-52.608v112.685l-60.13-60.076zm60.13-78.317v3.504l-109.788 96.06c-3.79 3.31-10.357 3.31-14.146 0l-109.787-96.06v-3.504h233.72z" fill="#FFF"/></svg>