<svg viewBox="0 0 512 512" xmlns="http://www.w3.org/2000/svg"><rect height="512" rx="64" ry="64" width="512" fill="#00abf1"/><path d="M456 131.94c-14.717 6.532-30.527 10.94-47.128 12.925 16.936-10.156 29.95-26.243 36.08-45.397a164.35 164.35 0 0 1-52.12 19.908c-14.96-15.952-36.296-25.914-59.893-25.914-45.33 0-82.077 36.747-82.077 82.067 0 6.43.728 12.684 2.13 18.7-68.208-3.43-128.67-36.096-169.148-85.754-7.066 12.12-11.112 26.212-11.112 41.26 0 28.473 14.483 53.587 36.505 68.304a81.832 81.832 0 0 1-37.17-10.26c-.004.337-.004.683-.004 1.03 0 39.76 28.29 72.924 65.826 80.476a82.612 82.612 0 0 1-21.615 2.874c-5.294 0-10.43-.53-15.436-1.476 10.44 32.597 40.75 56.327 76.653 56.99-28.078 22.014-63.465 35.135-101.923 35.135-6.617 0-13.15-.39-19.573-1.16 36.326 23.294 79.46 36.882 125.803 36.882 150.945 0 233.49-125.048 233.49-233.49 0-3.567-.08-7.104-.23-10.626a166.833 166.833 0 0 0 40.94-42.48z" fill="#fff"/></svg>